<svg xmlns="http://www.w3.org/2000/svg" width="221.29mm" height="67.2mm" viewBox="0 0 627.27 190.49"><defs><style>.cls-1{fill:#262626;}.cls-2{fill:#2a928a;}</style></defs><g id="レイヤー_2" data-name="レイヤー 2"><g id="レイヤー_1-2" data-name="レイヤー 1"><polyline class="cls-1" points="0 95.24 8.06 103.31 41.12 70.31 41.12 118.41 25.15 102.45 16.18 111.42 63.96 159.21 63.96 31.28 0 95.24"/><polyline class="cls-1" points="182.43 103.31 190.49 95.24 95.24 0 87.18 8.06 138.89 59.82 138.89 146.84 161.73 124 161.73 82.67 182.43 103.31"/><path class="cls-2" d="M81.32,13.92,72.24,23V167.48l23,23,35.42-35.42V63.21Zm37.9,111.32L95.08,149.32V43.86L119.22,68Z"/><path class="cls-1" d="M264.34,53.5v49.17c0,13.86-1.55,18.7-5.07,23.1-5.5,7.15-14.74,10.67-23,10.67-2,0-27.28,0-27.39-27.72H231c.22,3.74.77,9.46,6.27,9.46,6.27,0,6.27-6.6,6.27-10.34V53.5Z"/><path class="cls-1" d="M340.81,134.9H322.54v-6.6h-.21c-3.09,5.94-10.68,8.69-17.83,8.69-19.36,0-30.69-15.18-30.69-32.67,0-20,14.41-32.56,30.69-32.56,10,0,15.62,4.84,17.83,8.58h.21V73.85h18.27Zm-33.56-15c11.45,0,15.29-9.68,15.29-15.62,0-7.37-5.06-15.51-15.4-15.51s-15.07,8.8-15.07,15.73C292.07,110.26,296.25,119.94,307.25,119.94Z"/><path class="cls-1" d="M487.64,115.76a35.81,35.81,0,0,1-12.43,15.62,29.67,29.67,0,0,1-17.38,5.5,32.39,32.39,0,0,1-32.34-32.34c0-17.05,13.42-32.78,32-32.78s32.23,14.74,32.23,33.33a25,25,0,0,1-.44,4.84H443.53c1.1,7.26,7.15,11.55,14.3,11.55,5.61,0,8.58-2.53,11.11-5.72ZM471.47,97.61c-.77-3.63-4.4-10.45-13.86-10.45S444.52,94,443.75,97.61Z"/><path class="cls-1" d="M516.92,67.36H498.66V53.5h18.26Zm0,67.54H498.66V73.85h18.26Z"/><path class="cls-1" d="M551.68,73.85h8.8V87.71h-8.8V134.9H533.42V87.71h-9V73.85h9V53.5h18.26Z"/><path class="cls-1" d="M625.18,115.76a35.76,35.76,0,0,1-12.44,15.62,29.67,29.67,0,0,1-17.38,5.5A32.39,32.39,0,0,1,563,104.54c0-17.05,13.42-32.78,32-32.78s32.24,14.74,32.24,33.33a24.08,24.08,0,0,1-.45,4.84H581.06c1.1,7.26,7.15,11.55,14.3,11.55,5.61,0,8.58-2.53,11.11-5.72ZM609,97.61c-.77-3.63-4.4-10.45-13.86-10.45S582.05,94,581.28,97.61Z"/><path class="cls-1" d="M370.82,113a16.56,16.56,0,0,1-2.41-8.85c0-7,4.95-15.29,15.51-15.29a15.53,15.53,0,0,1,8.62,2.43L416.6,67.18V53.5H398.34V79c-2-2-7.16-7.26-17.94-7.26-15.51,0-30.25,11.77-30.25,32.45,0,8.59,2.65,16.3,7.36,22.06Z"/><path class="cls-1" d="M396.9,95.7a15.89,15.89,0,0,1,2.42,8.4c0,6.38-4.18,15.73-15.61,15.73a15.62,15.62,0,0,1-8.52-2.42L362,130.64a29.77,29.77,0,0,0,18.77,6.24c12.32,0,16.73-6,18.26-8.58h.22v6.6H416.6V76Z"/><path class="cls-2" d="M383.79,112.08c5.72,0,7.81-4.68,7.81-7.87a7.73,7.73,0,1,0-7.81,7.87Z"/></g></g></svg>